<svg width="24" height="24" viewBox="0 0 24 24" fill="none" xmlns="http://www.w3.org/2000/svg">
<rect width="24" height="24" fill="#1E1E1E"/>
<g id="Assignment 2.0">
<rect width="2190" height="1126" transform="translate(-2099 -432)" fill="#16181C"/>
<g id="Group 27168">
<g id="create account 4/" clip-path="url(#clip0_271_2960)">
<rect width="390" height="868" transform="translate(-339 -214)" fill="black"/>
<g id="signup/2">
<rect x="-339" y="-170" width="390" height="824" rx="16" fill="black"/>
<g id="Frame 27147">
<g id="Frame 27113">
<g id="Frame 27145">
<g id="Frame 27114">
<g id="eye">
<path id="Vector" d="M2 12C2 12 5 5 12 5C19 5 22 12 22 12C22 12 19 19 12 19C5 19 2 12 2 12Z" stroke="#737373" stroke-width="2" stroke-linecap="round" stroke-linejoin="round"/>
<path id="Vector_2" d="M12 15C13.6569 15 15 13.6569 15 12C15 10.3431 13.6569 9 12 9C10.3431 9 9 10.3431 9 12C9 13.6569 10.3431 15 12 15Z" stroke="#737373" stroke-width="2" stroke-linecap="round" stroke-linejoin="round"/>
</g>
<rect x="-323.5" y="-15.5" width="359" height="55" rx="3.5" stroke="#1D9BF0"/>
</g>
</g>
</g>
</g>
</g>
</g>
</g>
</g>
<defs>
<clipPath id="clip0_271_2960">
<rect width="390" height="868" fill="white" transform="translate(-339 -214)"/>
</clipPath>
</defs>
</svg>
