<svg width="16" height="17" viewBox="0 0 16 17" fill="none" xmlns="http://www.w3.org/2000/svg">
<path d="M13.45 17C12.7416 17 12.1395 16.7521 11.6437 16.2563C11.1479 15.7604 10.9 15.1583 10.9 14.45C10.9 14.3508 10.907 14.248 10.9212 14.1414C10.9354 14.0349 10.9566 13.9394 10.985 13.855L4.99245 10.37C4.75162 10.5825 4.48245 10.7491 4.18495 10.8698C3.88745 10.9905 3.57578 11.0506 3.24995 11.05C2.54162 11.05 1.93953 10.8021 1.4437 10.3063C0.947868 9.81042 0.699951 9.20833 0.699951 8.5C0.699951 7.79167 0.947868 7.18958 1.4437 6.69375C1.93953 6.19792 2.54162 5.95 3.24995 5.95C3.57578 5.95 3.88745 6.01035 4.18495 6.13105C4.48245 6.25175 4.75162 6.41807 4.99245 6.63L10.985 3.145C10.9566 3.06 10.9354 2.96452 10.9212 2.85855C10.907 2.75258 10.9 2.64973 10.9 2.55C10.9 1.84167 11.1479 1.23958 11.6437 0.74375C12.1395 0.247917 12.7416 0 13.45 0C14.1583 0 14.7604 0.247917 15.2562 0.74375C15.752 1.23958 16 1.84167 16 2.55C16 3.25833 15.752 3.86042 15.2562 4.35625C14.7604 4.85208 14.1583 5.1 13.45 5.1C13.1241 5.1 12.8125 5.03993 12.515 4.9198C12.2175 4.79967 11.9483 4.63307 11.7075 4.42L5.71495 7.905C5.74328 7.99 5.76453 8.08577 5.7787 8.1923C5.79287 8.29883 5.79995 8.4014 5.79995 8.5C5.79995 8.59917 5.79287 8.70202 5.7787 8.80855C5.76453 8.91508 5.74328 9.01057 5.71495 9.095L11.7075 12.58C11.9483 12.3675 12.2175 12.2012 12.515 12.081C12.8125 11.9609 13.1241 11.9006 13.45 11.9C14.1583 11.9 14.7604 12.1479 15.2562 12.6438C15.752 13.1396 16 13.7417 16 14.45C16 15.1583 15.752 15.7604 15.2562 16.2563C14.7604 16.7521 14.1583 17 13.45 17ZM13.45 3.4C13.6908 3.4 13.8928 3.3184 14.056 3.1552C14.2192 2.992 14.3005 2.79027 14.3 2.55C14.3 2.30917 14.2184 2.10715 14.0552 1.94395C13.892 1.78075 13.6902 1.69943 13.45 1.7C13.2091 1.7 13.0071 1.7816 12.8439 1.9448C12.6807 2.108 12.5994 2.30973 12.6 2.55C12.6 2.79083 12.6816 2.99285 12.8448 3.15605C13.008 3.31925 13.2097 3.40057 13.45 3.4ZM3.24995 9.35C3.49078 9.35 3.6928 9.2684 3.856 9.1052C4.0192 8.942 4.10052 8.74027 4.09995 8.5C4.09995 8.25917 4.01835 8.05715 3.85515 7.89395C3.69195 7.73075 3.49022 7.64943 3.24995 7.65C3.00912 7.65 2.8071 7.7316 2.6439 7.8948C2.4807 8.058 2.39938 8.25973 2.39995 8.5C2.39995 8.74083 2.48155 8.94285 2.64475 9.10605C2.80795 9.26925 3.00968 9.35057 3.24995 9.35ZM13.45 15.3C13.6908 15.3 13.8928 15.2184 14.056 15.0552C14.2192 14.892 14.3005 14.6903 14.3 14.45C14.3 14.2092 14.2184 14.0072 14.0552 13.844C13.892 13.6808 13.6902 13.5994 13.45 13.6C13.2091 13.6 13.0071 13.6816 12.8439 13.8448C12.6807 14.008 12.5994 14.2097 12.6 14.45C12.6 14.6908 12.6816 14.8928 12.8448 15.0561C13.008 15.2192 13.2097 15.3006 13.45 15.3Z" fill="#737373"/>
</svg>
